<svg width="16" height="16" viewBox="0 0 16 16" fill="none" xmlns="http://www.w3.org/2000/svg">
<path d="M12 0H4C1.79086 0 0 1.79086 0 4V12C0 14.2091 1.79086 16 4 16H12C14.2091 16 16 14.2091 16 12V4C16 1.79086 14.2091 0 12 0Z" fill="#4B4646"/>
<path d="M12 9.5C12 9.22386 11.7761 9 11.5 9C11.2239 9 11 9.22386 11 9.5V13.5C11 13.7761 11.2239 14 11.5 14C11.7761 14 12 13.7761 12 13.5V9.5Z" fill="#D9D9D9"/>
<path d="M5.75 2.41673C5.98012 2.18661 6.35322 2.18661 6.58333 2.41673C6.81345 2.64685 6.81345 3.01994 6.58333 3.25006L3.25 6.58339C3.01988 6.81351 2.64679 6.81351 2.41667 6.58339C2.18655 6.35327 2.18655 5.98018 2.41667 5.75006L5.75 2.41673Z" fill="#D9D9D9"/>
<path d="M3.25 2.41671C3.01988 2.18659 2.64678 2.18659 2.41667 2.41671C2.18655 2.64683 2.18655 3.01992 2.41667 3.25004L5.75 6.58338C5.98012 6.81349 6.35322 6.8135 6.58334 6.58338C6.81345 6.35326 6.81345 5.98016 6.58333 5.75004L3.25 2.41671Z" fill="#A3CA00"/>
<path d="M2.5 11C2.22386 11 2 11.2239 2 11.5C2 11.7761 2.22386 12 2.5 12H6.5C6.77614 12 7 11.7761 7 11.5C7 11.2239 6.77614 11 6.5 11H2.5Z" fill="#A3CA00"/>
<path d="M9.5 4C9.22386 4 9 4.22386 9 4.5C9 4.77614 9.22386 5 9.5 5H13.5C13.7761 5 14 4.77614 14 4.5C14 4.22386 13.7761 4 13.5 4H9.5Z" fill="#D9D9D9"/>
<path d="M9.5 11C9.22386 11 9 11.2239 9 11.5C9 11.7761 9.22386 12 9.5 12H13.5C13.7761 12 14 11.7761 14 11.5C14 11.2239 13.7761 11 13.5 11H9.5Z" fill="#A3CA00"/>
<path d="M11.5 3C11.7761 3 12 2.77614 12 2.5C12 2.22386 11.7761 2 11.5 2C11.2239 2 11 2.22386 11 2.5C11 2.77614 11.2239 3 11.5 3Z" fill="#A3CA00"/>
<path d="M11.5 7C11.7761 7 12 6.77614 12 6.5C12 6.22386 11.7761 6 11.5 6C11.2239 6 11 6.22386 11 6.5C11 6.77614 11.2239 7 11.5 7Z" fill="#A3CA00"/>
</svg>
